<svg width="256" height="256" viewBox="0 0 256 256" fill="none" xmlns="http://www.w3.org/2000/svg">
  <rect width="256" height="256" rx="64" fill="#0C0A09"/>
  <circle cx="186" cy="70" r="42" fill="url(#paint0_radial)" fill-opacity="0.85"/>
  <path d="M52 172C52 164.268 58.268 158 66 158H190C197.732 158 204 164.268 204 172V178C204 185.732 197.732 192 190 192H66C58.268 192 52 185.732 52 178V172Z" fill="#1C1917" stroke="#44403C" stroke-width="2"/>
  <path d="M68 157L95.6 92.2913C97.1736 88.6002 100.803 86.208 104.816 86.208H112.898C116.916 86.208 120.55 88.6062 122.119 92.3045L143 141.5L162.047 92.3534C163.593 88.3636 167.43 85.7333 171.709 85.7333H179.934C187.054 85.7333 191.875 92.994 189.097 99.5497L159.437 169.55C157.868 173.251 154.232 175.65 150.212 175.65H141.615C137.611 175.65 133.986 173.269 132.406 169.588L111 119.699L90.3138 169.514C88.7736 173.224 85.1543 175.65 81.1375 175.65H73.1747C69.4971 175.65 66.5162 172.669 66.5162 168.992C66.5162 168.094 66.6937 167.205 67.0387 166.376L68 164.067V157Z" fill="url(#paint1_linear)"/>
  <path d="M108 61C108 52.1634 115.163 45 124 45H132C140.837 45 148 52.1634 148 61V162H108V61Z" fill="url(#paint2_linear)" fill-opacity="0.9"/>
  <path d="M111 116H145" stroke="#FDE68A" stroke-width="6" stroke-linecap="round"/>
  <path d="M184 60L196 72L176 92" stroke="#FBBF24" stroke-width="10" stroke-linecap="round" stroke-linejoin="round"/>
  <defs>
    <radialGradient id="paint0_radial" cx="0" cy="0" r="1" gradientUnits="userSpaceOnUse" gradientTransform="translate(186 70) rotate(90) scale(42)">
      <stop stop-color="#FDE68A"/>
      <stop offset="1" stop-color="#CA8A04" stop-opacity="0"/>
    </radialGradient>
    <linearGradient id="paint1_linear" x1="64" y1="85" x2="192" y2="180" gradientUnits="userSpaceOnUse">
      <stop stop-color="#F59E0B"/>
      <stop offset="0.45" stop-color="#FDE68A"/>
      <stop offset="1" stop-color="#D97706"/>
    </linearGradient>
    <linearGradient id="paint2_linear" x1="128" y1="45" x2="128" y2="162" gradientUnits="userSpaceOnUse">
      <stop stop-color="#57534E"/>
      <stop offset="1" stop-color="#1C1917"/>
    </linearGradient>
  </defs>
</svg>
