<svg width="212" height="40" viewBox="0 0 212 40" fill="none" xmlns="http://www.w3.org/2000/svg">
  <path d="M2 31V8H20.7V12.6H7.67V18.2H19.4V22.7H7.67V31H2Z" fill="#0F172A"/>
  <path d="M27.4 31V8H33.26L40.7 19.11L48.12 8H53.74V31H48.12V17.55L42.58 25.5H38.7L33.02 17.35V31H27.4Z" fill="#0F172A"/>
  <path d="M62.7 31V8H72.28C74.5 8 76.38 8.39 77.91 9.17C79.44 9.93 80.61 11.01 81.41 12.39C82.23 13.77 82.64 15.33 82.64 17.07C82.64 18.85 82.23 20.43 81.41 21.81C80.61 23.19 79.44 24.28 77.91 25.08C76.38 25.86 74.5 26.25 72.28 26.25H68.37V31H62.7ZM68.37 21.73H71.65C73.18 21.73 74.34 21.34 75.12 20.57C75.92 19.8 76.32 18.75 76.32 17.42C76.32 16.09 75.92 15.05 75.12 14.28C74.34 13.51 73.18 13.12 71.65 13.12H68.37V21.73Z" fill="#0F172A"/>
  <path d="M89.24 31V8H98.82C101.02 8 102.89 8.36 104.42 9.08C105.97 9.8 107.15 10.84 107.95 12.2C108.75 13.54 109.15 15.12 109.15 16.94C109.15 18.99 108.62 20.75 107.57 22.2C106.52 23.63 105 24.66 102.99 25.28L109.51 31H102.07L96.64 25.98H94.91V31H89.24ZM94.91 21.38H98.26C99.83 21.38 101.01 21.02 101.82 20.29C102.62 19.56 103.02 18.56 103.02 17.29C103.02 16.08 102.62 15.12 101.82 14.39C101.01 13.66 99.83 13.29 98.26 13.29H94.91V21.38Z" fill="#0F172A"/>
  <path d="M115.64 31V8H133.81V12.57H121.31V17.24H132.85V21.66H121.31V26.43H134.09V31H115.64Z" fill="#0F172A"/>
  <path d="M140.01 31V8H145.68V31H140.01Z" fill="#0F172A"/>
  <path d="M154.22 31V8H159.89V26.22H171.08V31H154.22Z" fill="#0F172A"/>
  <path d="M176.2 31V8H194.37V12.57H181.87V17.24H193.41V21.66H181.87V26.43H194.65V31H176.2Z" fill="#0F172A"/>
  <path d="M199.68 31V8H209.26C211.48 8 213.36 8.39 214.89 9.17C216.42 9.93 217.59 11.01 218.39 12.39C219.21 13.77 219.62 15.33 219.62 17.07C219.62 18.85 219.21 20.43 218.39 21.81C217.59 23.19 216.42 24.28 214.89 25.08C213.36 25.86 211.48 26.25 209.26 26.25H205.35V31H199.68ZM205.35 21.73H208.63C210.16 21.73 211.32 21.34 212.1 20.57C212.9 19.8 213.3 18.75 213.3 17.42C213.3 16.09 212.9 15.05 212.1 14.28C211.32 13.51 210.16 13.12 208.63 13.12H205.35V21.73Z" fill="#0F172A"/>
</svg>
