<svg width="64" height="64" viewBox="0 0 64 64" fill="none" xmlns="http://www.w3.org/2000/svg">
  <rect x="4" y="4" width="56" height="56" rx="18" fill="#0F172A"/>
  <rect x="4" y="4" width="56" height="56" rx="18" stroke="rgba(148,163,184,0.24)"/>
  <path d="M17 44V19H38V24.2H23.4V29.2H35.8V34.1H23.4V44H17Z" fill="white"/>
  <path d="M34 44V19H39.4L46.8 30.1L54.2 19H59V44H52.7V31.6L47.7 39.1H45.7L40.3 31.2V44H34Z" fill="#2563EB"/>
  <path d="M19.5 45.5L31 35.6L39.5 38.4L50.5 24.5" stroke="#7DD3FC" stroke-width="2.6" stroke-linecap="round" stroke-linejoin="round"/>
  <circle cx="19.5" cy="45.5" r="2.9" fill="#7DD3FC"/>
  <circle cx="31" cy="35.6" r="2.9" fill="#7DD3FC"/>
  <circle cx="39.5" cy="38.4" r="2.9" fill="#7DD3FC"/>
  <circle cx="50.5" cy="24.5" r="2.9" fill="#7DD3FC"/>
</svg>
