<svg width="256" height="256" viewBox="0 0 256 256" fill="none" xmlns="http://www.w3.org/2000/svg">
  <rect width="256" height="256" rx="64" fill="#0C0A09"/>
  <circle cx="186" cy="70" r="42" fill="url(#paint0_radial)" fill-opacity="0.85"/>
  <path d="M52 172C52 164.268 58.268 158 66 158H190C197.732 158 204 164.268 204 172V178C204 185.732 197.732 192 190 192H66C58.268 192 52 185.732 52 178V172Z" fill="#1C1917" stroke="#44403C" stroke-width="2"/>
  <path d="M68 157L95.6 92.2913C97.1736 88.6002 100.803 86.208 104.816 86.208H112.898C116.916 86.208 120.55 88.6062 122.119 92.3045L143 141.5L162.047 92.3534C163.593 88.3636 167.43 85.7333 171.709 85.7333H179.934C187.054 85.7333 191.875 92.994 189.097 99.5497L159.437 169.55C157.868 173.251 154.232 175.65 150.212 175.65H141.615C137.611 175.65 133.986 173.269 132.406 169.588L111 119.699L90.3138 169.514C88.7736 173.224 85.1543 175.65 81.1375 175.65H73.1747C69.4971 175.65 66.5162 172.669 66.5162 168.992C66.5162 168.094 66.6937 167.205 67.0387 166.376L68 164.067V157Z" fill="url(#paint1_linear)"/>
  <path d="M108 61C108 52.1634 115.163 45 124 45H132C140.837 45 148 52.1634 148 61V162H108V61Z" fill="url(#paint2_linear)" fill-opacity="0.9"/>
  <path d="M111 116H145" stroke="#FDE68A" stroke-width="6" stroke-linecap="round"/>
  <path d="M184 60L196 72L176 92" stroke="#FBBF24" stroke-width="10" stroke-linecap="round" stroke-linejoin="round"/>
  <defs>
    <radialGradient id="paint0_radial" cx="0" cy="0" r="1" gradientUnits="userSpaceOnUse" gradientTransform="translate(186 70) rotate(90) scale(42)">
      <stop stop-color="#FDE68A"/>
      <stop offset="1" stop-color="#CA8A04" stop-opacity="0"/>
    </radialGradient>
    <linearGradient id="paint1_linear" x1="64" y1="85" x2="192" y2="180" gradientUnits="userSpaceOnUse">
      <stop stop-color="#F59E0B"/>
      <stop offset="0.45" stop-color="#FDE68A"/>
      <stop offset="1" stop-color="#D97706"/>
    </linearGradient>
    <linearGradient id="paint2_linear" x1="128" y1="45" x2="128" y2="162" gradientUnits="userSpaceOnUse">
      <stop stop-color="#57534E"/>
      <stop offset="1" stop-color="#1C1917"/>
    </linearGradient>
  </defs>
<svg width="220" height="56" viewBox="0 0 220 56" fill="none" xmlns="http://www.w3.org/2000/svg">
  <defs>
    <linearGradient id="finmodproLogoGradient" x1="6" y1="6" x2="50" y2="50" gradientUnits="userSpaceOnUse">
      <stop stop-color="#60A5FA"/>
      <stop offset="1" stop-color="#1D4ED8"/>
    </linearGradient>
  </defs>
  <rect x="2" y="2" width="52" height="52" rx="16" fill="#0F172A"/>
  <rect x="2" y="2" width="52" height="52" rx="16" stroke="rgba(148,163,184,0.28)"/>
  <path d="M14 39V17H33V22H20V26H31V31H20V39H14Z" fill="white"/>
  <path d="M31 39V17H36.2L42.8 27.2L49.5 17H54V39H48V27.6L43.6 34.4H41.8L37 27.2V39H31Z" fill="url(#finmodproLogoGradient)"/>
  <path d="M17 40.5L28 31L36 34L47 21" stroke="#7DD3FC" stroke-width="2.5" stroke-linecap="round" stroke-linejoin="round"/>
  <circle cx="17" cy="40.5" r="2.8" fill="#7DD3FC"/>
  <circle cx="28" cy="31" r="2.8" fill="#7DD3FC"/>
  <circle cx="36" cy="34" r="2.8" fill="#7DD3FC"/>
  <circle cx="47" cy="21" r="2.8" fill="#7DD3FC"/>
  <g fill="#0F172A">
    <path d="M72 22.3H92.5V27.2H78.2V33H90.9V37.7H78.2V47H72V22.3Z"/>
    <path d="M100.2 47V22.3H106.4V42H118.6V47H100.2Z"/>
    <path d="M125.6 47V22.3H144.8V27.1H131.8V32.2H143.9V36.8H131.8V42.2H145.1V47H125.6Z"/>
    <path d="M152.3 47V22.3H162.7C165 22.3 166.9 22.7 168.4 23.5C169.9 24.3 171.1 25.4 171.9 26.8C172.7 28.2 173.1 29.8 173.1 31.6C173.1 33.5 172.7 35.1 171.9 36.5C171.1 37.9 169.9 39 168.4 39.8C166.9 40.6 165 41 162.7 41H158.5V47H152.3ZM158.5 36.2H162.2C163.6 36.2 164.7 35.8 165.5 35.1C166.2 34.4 166.6 33.5 166.6 32.2C166.6 31 166.2 30 165.5 29.3C164.7 28.6 163.6 28.2 162.2 28.2H158.5V36.2Z"/>
    <path d="M180.3 47V22.3H190.6C193 22.3 194.9 22.7 196.4 23.4C197.9 24.1 199 25.2 199.8 26.5C200.6 27.8 201 29.4 201 31.1C201 33 200.5 34.7 199.5 36.1C198.5 37.5 197 38.6 195.1 39.2L201.4 47H194L188.6 40.1H186.5V47H180.3ZM186.5 35.5H190.2C191.6 35.5 192.7 35.2 193.4 34.5C194.2 33.8 194.5 32.9 194.5 31.8C194.5 30.7 194.2 29.8 193.4 29.1C192.7 28.5 191.6 28.1 190.2 28.1H186.5V35.5Z"/>
    <path d="M217.7 47.5C215.3 47.5 213.1 46.9 211.2 45.7C209.3 44.5 207.8 42.9 206.7 40.8C205.6 38.8 205 36.5 205 34.1C205 31.6 205.6 29.4 206.7 27.3C207.8 25.3 209.3 23.7 211.2 22.5C213.1 21.3 215.3 20.7 217.7 20.7C220.1 20.7 222.3 21.3 224.2 22.5C226.1 23.7 227.6 25.3 228.7 27.3C229.8 29.4 230.4 31.6 230.4 34.1C230.4 36.5 229.8 38.8 228.7 40.8C227.6 42.9 226.1 44.5 224.2 45.7C222.3 46.9 220.1 47.5 217.7 47.5ZM217.7 41.9C219 41.9 220.2 41.6 221.2 40.9C222.2 40.2 223 39.2 223.6 37.9C224.2 36.7 224.5 35.4 224.5 34.1C224.5 32.6 224.2 31.3 223.6 30.1C223 28.9 222.2 27.9 221.2 27.2C220.2 26.5 219 26.2 217.7 26.2C216.3 26.2 215.1 26.5 214.1 27.2C213.1 27.9 212.3 28.9 211.8 30.1C211.2 31.3 210.9 32.6 210.9 34.1C210.9 35.4 211.2 36.7 211.8 37.9C212.3 39.2 213.1 40.2 214.1 40.9C215.1 41.6 216.3 41.9 217.7 41.9Z"/>
  </g>
</svg>
